<?xml version="1.0" encoding="UTF-8" standalone="no"?>
<!-- Created with Inkscape (http://www.inkscape.org/) -->

<svg
   xmlns:dc="http://purl.org/dc/elements/1.1/"
   xmlns:cc="http://creativecommons.org/ns#"
   xmlns:rdf="http://www.w3.org/1999/02/22-rdf-syntax-ns#"
   xmlns:svg="http://www.w3.org/2000/svg"
   xmlns="http://www.w3.org/2000/svg"
   xmlns:sodipodi="http://sodipodi.sourceforge.net/DTD/sodipodi-0.dtd"
   xmlns:inkscape="http://www.inkscape.org/namespaces/inkscape"
   width="235"
   height="255.99998"
   viewBox="0 0 62.177081 67.733324"
   version="1.1"
   id="svg8"
   sodipodi:docname="logo.svg"
   inkscape:version="0.92.1 r15371"
   inkscape:export-filename="C:\Users\Alex\Downloads\logo12.png"
   inkscape:export-xdpi="96"
   inkscape:export-ydpi="96">
  <defs
     id="defs2" />
  <sodipodi:namedview
     id="base"
     pagecolor="#ffffff"
     bordercolor="#666666"
     borderopacity="1.0"
     inkscape:pageopacity="0.0"
     inkscape:pageshadow="2"
     inkscape:zoom="0.64"
     inkscape:cx="465.70572"
     inkscape:cy="236.44239"
     inkscape:document-units="mm"
     inkscape:current-layer="layer1"
     showgrid="false"
     inkscape:window-width="1920"
     inkscape:window-height="1017"
     inkscape:window-x="-8"
     inkscape:window-y="-8"
     inkscape:window-maximized="1"
     units="px"
     fit-margin-top="0"
     fit-margin-left="0"
     fit-margin-right="0"
     fit-margin-bottom="0" />
  <metadata
     id="metadata5">
    <rdf:RDF>
      <cc:Work
         rdf:about="">
        <dc:format>image/svg+xml</dc:format>
        <dc:type
           rdf:resource="http://purl.org/dc/dcmitype/StillImage" />
        <dc:title></dc:title>
      </cc:Work>
    </rdf:RDF>
  </metadata>
  <g
     inkscape:label="Layer 1"
     inkscape:groupmode="layer"
     id="layer1"
     transform="translate(0,-229.26668)">
    <g
       id="g844"
       transform="translate(-15.426008,-4.6584611)" />
    <flowRoot
       xml:space="preserve"
       id="flowRoot978"
       style="font-style:normal;font-variant:normal;font-weight:normal;font-stretch:normal;font-size:40px;line-height:1.25;font-family:'Rage Italic';-inkscape-font-specification:'Rage Italic, ';letter-spacing:0px;word-spacing:0px;fill:#000000;fill-opacity:1;stroke:none"
       transform="translate(3.2866667e-4)"><flowRegion
         id="flowRegion980"><rect
           id="rect982"
           width="126.21856"
           height="95.989746"
           x="116.14229"
           y="439.98486" /></flowRegion><flowPara
         id="flowPara984" /></flowRoot>    <flowRoot
       xml:space="preserve"
       id="flowRoot972"
       style="font-style:normal;font-variant:normal;font-weight:normal;font-stretch:normal;font-size:13.33333302px;line-height:1.25;font-family:Lato;-inkscape-font-specification:'Lato, Normal';font-variant-ligatures:normal;font-variant-caps:normal;font-variant-numeric:normal;font-feature-settings:normal;text-align:start;letter-spacing:0px;word-spacing:0px;writing-mode:lr-tb;text-anchor:start;fill:#000000;fill-opacity:1;stroke:none"
       transform="matrix(0.26458333,0,0,0.26458333,0,284.56458)"><flowRegion
         id="flowRegion974"><rect
           id="rect976"
           width="214.61795"
           height="71.263107"
           x="-231.74319"
           y="84.288834" /></flowRegion><flowPara
         id="flowPara978" /></flowRoot>    <path
       inkscape:connector-curvature="0"
       style="fill:#0fbe7c;fill-opacity:1;stroke:none;stroke-width:1.34798682"
       d="m 31.046622,229.26668 c -1.967692,1.5784 -0.893664,0.70728 -2.86122,2.28596 v 0.0764 c 1.364204,1.88464 2.100971,4.1512 2.105731,6.47812 -9.85e-4,6.1198 -4.959415,11.08044 -11.076262,11.08148 -0.148109,-0.004 -0.29659,-0.012 -0.444792,-0.024 l -6.893776,4.3214 -0.08709,20.20069 17.633099,10.26228 17.124988,-9.99108 c 0.260282,-23.19485 0.267679,-20.29093 0.279313,-27.75581 l 5.798662,3.0388 -0.19787,25.99425 c -2.656638,1.087 -4.393338,3.67232 -4.395769,6.54392 2.84e-4,3.90784 3.166677,7.0756 7.072763,7.07592 3.905978,-3.2e-4 7.072401,-3.16808 7.072685,-7.07592 -0.0035,-2.7298 -1.577502,-5.21388 -4.043024,-6.38332 L 58.06317,246.41544 41.080266,235.04196 v 28.39308 c 2.08e-4,0.024 0.0027,0.0424 0.0027,0.0584 0,0.02 -0.0027,0.028 -0.0027,0.0516 v 0.2424 h -0.0108 c -0.157249,5.98384 -5.043908,10.78937 -11.063094,10.78905 -6.118893,3.2e-4 -11.079331,-4.96233 -11.078944,-11.08397 -3.87e-4,-6.12164 4.960051,-11.08436 11.078944,-11.08384 1.759128,0.003 3.490678,0.42816 5.053787,1.23496 v -8.24256 l -0.02119,-13.64088 z m -11.981779,1.90664 c -4.045601,2e-4 -7.325132,3.28136 -7.325412,7.32872 0.0027,0.4748 0.05186,0.9486 0.144934,1.41412 C 7.8245879,242.40756 2.0591785,245.84132 0,247.01052 v 33.23325 l 29.238395,16.75624 17.009277,-9.15628 c -1.017851,-1.57756 -1.797359,-3.41432 -1.924145,-5.28776 l -15.006135,8.04484 -23.684485,-13.89368 0.1156836,-26.59449 9.3758814,-5.44312 c 1.175807,0.75496 2.543077,1.15796 3.940398,1.16116 4.046632,0.001 7.327751,-3.28016 7.327995,-7.32864 -2.44e-4,-4.0484 -3.281363,-7.32992 -7.327995,-7.32872 z m 0.07615,3.13892 c 2.357474,3.2e-4 4.268707,1.84284 4.269413,4.11612 7.06e-4,2.27428 -1.910921,4.11836 -4.269413,4.11856 -2.358422,-2e-4 -4.270039,-1.84428 -4.269333,-4.11856 7e-4,-2.27328 1.911934,-4.1158 4.269333,-4.11612 z m 10.942073,23.4636 a 6.0863971,5.86906 0 0 0 -6.085708,5.86968 6.0863971,5.86906 0 0 0 6.085708,5.86724 6.0863971,5.86906 0 0 0 6.085597,-5.86724 6.0863971,5.86906 0 0 0 -6.085597,-5.86968 z m 25.182126,19.91889 c 2.358565,1.2e-4 4.270221,1.84424 4.269478,4.11856 7.43e-4,2.27432 -1.910913,4.1184 -4.269478,4.11868 -2.358422,-2.8e-4 -4.270113,-1.84436 -4.26941,-4.11868 -7.03e-4,-2.27432 1.910988,-4.11844 4.26941,-4.11856 z"
       id="path896-7-8-3-0-2-5-6-0-4-2-1" />
    <flowRoot
       xml:space="preserve"
       id="flowRoot1189"
       style="font-style:normal;font-variant:normal;font-weight:normal;font-stretch:normal;font-size:13.33333302px;line-height:1.25;font-family:Lato;-inkscape-font-specification:'Lato, Normal';font-variant-ligatures:normal;font-variant-caps:normal;font-variant-numeric:normal;font-feature-settings:normal;text-align:start;letter-spacing:0px;word-spacing:0px;writing-mode:lr-tb;text-anchor:start;fill:#000000;fill-opacity:1;stroke:none"
       transform="matrix(0.26458333,0,0,0.26458333,0,277.15625)"><flowRegion
         id="flowRegion1191"><rect
           id="rect1193"
           width="335.87573"
           height="136.17329"
           x="0.82864076"
           y="-33.551941" /></flowRegion><flowPara
         id="flowPara1195" /></flowRoot>  </g>
</svg>
